<svg width="134" height="24" viewBox="0 0 134 24" fill="none" xmlns="http://www.w3.org/2000/svg">
<path fill-rule="evenodd" clip-rule="evenodd" d="M47.2889 4.55146L48.6983 1.61896H51.5287L50.1269 4.55146H47.2889ZM3.25355 21.7476C3.95778 22.1699 4.74026 22.3811 5.60099 22.3811C6.46172 22.3811 7.23638 22.1699 7.92496 21.7476C8.61355 21.3097 9.16129 20.731 9.56818 20.0116C9.99072 19.2922 10.202 18.4867 10.202 17.5952V16.5161C10.202 16.4535 10.1707 16.4222 10.1081 16.4222H7.45547C7.39288 16.4222 7.36158 16.4535 7.36158 16.5161V17.5952C7.36158 18.0957 7.18943 18.5493 6.84514 18.9559C6.5165 19.3469 6.10178 19.5424 5.60099 19.5424C5.11585 19.5424 4.70114 19.3625 4.35685 19.0028C4.0282 18.6431 3.86388 18.1739 3.86388 17.5952V10.2757C3.86388 9.77522 4.01255 9.3373 4.3099 8.96194C4.60724 8.57094 5.03761 8.37544 5.60099 8.37544C6.10178 8.37544 6.5165 8.56312 6.84514 8.93848C7.18943 9.31384 7.36158 9.75958 7.36158 10.2757V11.3549C7.36158 11.4174 7.39288 11.4487 7.45547 11.4487H10.0846C10.1472 11.4487 10.1785 11.4174 10.1785 11.3549V10.2757C10.1785 9.39986 9.97507 8.61004 9.56818 7.90624C9.16129 7.1868 8.61355 6.61594 7.92496 6.19366C7.23638 5.77138 6.46172 5.56024 5.60099 5.56024C4.74026 5.56024 3.95778 5.7792 3.25355 6.21712C2.56496 6.6394 2.01723 7.21026 1.61034 7.9297C1.21909 8.6335 1.02347 9.4155 1.02347 10.2757L1 17.5952C1 18.4867 1.20345 19.2922 1.61034 20.0116C2.01723 20.731 2.56496 21.3097 3.25355 21.7476ZM12.388 22.0292C12.388 22.1074 12.4193 22.1465 12.4819 22.1465H15.1346C15.1972 22.1465 15.2285 22.1074 15.2285 22.0292V15.1319H18.7496V22.0292C18.7496 22.1074 18.7887 22.1465 18.867 22.1465H21.4961C21.5744 22.1465 21.6135 22.1074 21.6135 22.0292L21.5666 5.91214C21.5666 5.84958 21.5274 5.8183 21.4492 5.8183H18.8435C18.7809 5.8183 18.7496 5.84958 18.7496 5.91214V12.2933H15.2285L15.2519 5.91214C15.2519 5.84958 15.2128 5.8183 15.1346 5.8183H12.5289C12.4506 5.8183 12.4115 5.84958 12.4115 5.91214L12.388 22.0292ZM24.3219 22.1465C24.2593 22.1465 24.228 22.1074 24.228 22.0292L24.2514 5.9356C24.2514 5.8574 24.2906 5.8183 24.3688 5.8183H26.9745C27.0527 5.8183 27.0919 5.8574 27.0919 5.9356L27.0684 19.2609H31.9041C31.9824 19.2609 32.0215 19.3 32.0215 19.3782V22.0292C32.0215 22.1074 31.9824 22.1465 31.9041 22.1465H24.3219ZM35.7255 21.7476C36.4297 22.1699 37.2044 22.3811 38.0494 22.3811C38.8945 22.3811 39.6613 22.1699 40.3499 21.7476C41.0542 21.3097 41.6097 20.7389 42.0166 20.0351C42.4392 19.3156 42.6504 18.5258 42.6504 17.6656L42.627 10.2288C42.627 9.36858 42.4157 8.58658 41.9931 7.88278C41.5863 7.17898 41.0385 6.61594 40.3499 6.19366C39.6613 5.77138 38.8945 5.56024 38.0494 5.56024C37.22 5.56024 36.4532 5.77138 35.7489 6.19366C35.0447 6.61594 34.4813 7.17898 34.0588 7.88278C33.6519 8.58658 33.4484 9.36858 33.4484 10.2288L33.425 17.6656C33.425 18.5258 33.6362 19.3156 34.0588 20.0351C34.4813 20.7389 35.0369 21.3097 35.7255 21.7476ZM39.2701 18.9794C38.9258 19.3547 38.5189 19.5424 38.0494 19.5424C37.5643 19.5424 37.1496 19.3625 36.8053 19.0028C36.461 18.6275 36.2889 18.1817 36.2889 17.6656V10.2288C36.2889 9.69702 36.461 9.2591 36.8053 8.91502C37.1496 8.5553 37.5643 8.37544 38.0494 8.37544C38.5502 8.37544 38.9649 8.5553 39.2936 8.91502C39.6222 9.27474 39.7865 9.71266 39.7865 10.2288L39.81 17.6656C39.81 18.1504 39.63 18.5884 39.2701 18.9794ZM44.9987 22.1465C44.9361 22.1465 44.9048 22.1074 44.9048 22.0292L44.9282 5.91214C44.9282 5.84958 44.9595 5.8183 45.0221 5.8183H52.5574C52.62 5.8183 52.6513 5.8574 52.6513 5.9356V8.56312C52.6513 8.62568 52.62 8.65696 52.5574 8.65696H47.7452V12.3167H52.5574C52.62 12.3167 52.6513 12.348 52.6513 12.4106L52.6748 15.0615C52.6748 15.1241 52.6435 15.1554 52.5809 15.1554H47.7452V19.2609H52.5809C52.6435 19.2609 52.6748 19.3 52.6748 19.3782V22.0526C52.6748 22.1152 52.6435 22.1465 52.5809 22.1465H44.9987ZM59.1856 22.0292C59.1856 22.1074 59.2169 22.1465 59.2795 22.1465H66.8618C66.94 22.1465 66.9792 22.1074 66.9792 22.0292V19.3782C66.9792 19.3 66.94 19.2609 66.8618 19.2609H62.026L62.0495 5.9356C62.0495 5.8574 62.0104 5.8183 61.9321 5.8183H59.3265C59.2482 5.8183 59.2091 5.8574 59.2091 5.9356L59.1856 22.0292ZM68.1872 22.0292L71.098 5.91214C71.1137 5.84958 71.1528 5.8183 71.2154 5.8183H74.6192C74.6818 5.8183 74.7209 5.84958 74.7366 5.91214L77.53 22.0292C77.5457 22.1074 77.5144 22.1465 77.4361 22.1465H74.8305C74.7679 22.1465 74.7288 22.1074 74.7131 22.0292L74.4549 20.3166H71.2624L71.0042 22.0292C70.9885 22.1074 70.9494 22.1465 70.8868 22.1465H68.2811C68.2185 22.1465 68.1872 22.1074 68.1872 22.0292ZM71.7318 17.8064H73.9854L73.0229 11.2141L72.8821 10.3461L72.7882 11.2141L71.7318 17.8064ZM81.1935 21.7476C81.8978 22.1699 82.6646 22.3811 83.494 22.3811C84.3547 22.3811 85.1294 22.1699 85.818 21.7476C86.5222 21.3254 87.0778 20.7545 87.4847 20.0351C87.9072 19.3156 88.1185 18.518 88.1185 17.6421L88.0715 5.91214C88.0715 5.84958 88.0402 5.8183 87.9776 5.8183H85.3485C85.2859 5.8183 85.2546 5.84958 85.2546 5.91214V17.6421C85.2546 18.1739 85.0825 18.6275 84.7382 19.0028C84.4095 19.3625 83.9948 19.5424 83.494 19.5424C83.0089 19.5424 82.5942 19.3625 82.2499 19.0028C81.9212 18.6275 81.7569 18.1739 81.7569 17.6421V5.91214C81.7569 5.84958 81.7256 5.8183 81.663 5.8183H79.0339C78.9713 5.8183 78.94 5.84958 78.94 5.91214L78.893 17.6421C78.893 18.5023 79.0965 19.2922 79.5034 20.0116C79.9259 20.731 80.4893 21.3097 81.1935 21.7476ZM90.5354 22.1465C90.4728 22.1465 90.4415 22.1074 90.4415 22.0292L90.4884 5.91214C90.4884 5.84958 90.5197 5.8183 90.5823 5.8183H95.3242C96.1692 5.8183 96.9439 6.02944 97.6481 6.45172C98.368 6.85836 98.9393 7.41358 99.3619 8.11738C99.7844 8.80554 99.9957 9.58754 99.9957 10.4634C99.9957 11.0421 99.9096 11.566 99.7375 12.0352C99.5653 12.4888 99.3619 12.8798 99.1271 13.2082C98.8924 13.521 98.681 13.7556 98.4932 13.912C99.3384 14.8504 99.7609 15.953 99.7609 17.2199L99.7844 22.0292C99.7844 22.1074 99.7453 22.1465 99.667 22.1465H97.0143C96.9517 22.1465 96.9204 22.123 96.9204 22.0761V17.2199C96.9204 16.6568 96.717 16.172 96.3101 15.7653C95.9189 15.3431 95.4337 15.1319 94.8547 15.1319H93.3054L93.2819 22.0292C93.2819 22.1074 93.2506 22.1465 93.188 22.1465H90.5354ZM93.3054 12.3167H95.3242C95.8093 12.3167 96.2397 12.1369 96.6153 11.7771C96.9909 11.4174 97.1786 10.9795 97.1786 10.4634C97.1786 9.9629 96.9909 9.5328 96.6153 9.17308C96.2553 8.81336 95.825 8.6335 95.3242 8.6335H93.3054V12.3167ZM102.236 22.0292C102.236 22.1074 102.267 22.1465 102.329 22.1465H109.912C109.974 22.1465 110.006 22.1152 110.006 22.0526V19.3782C110.006 19.3 109.974 19.2609 109.912 19.2609H105.076V15.1554H109.912C109.974 15.1554 110.006 15.1241 110.006 15.0615L109.982 12.4106C109.982 12.348 109.951 12.3167 109.888 12.3167H105.076V8.65696H109.888C109.951 8.65696 109.982 8.62568 109.982 8.56312V5.9356C109.982 5.8574 109.951 5.8183 109.888 5.8183H102.353C102.29 5.8183 102.259 5.84958 102.259 5.91214L102.236 22.0292ZM112.774 22.1465C112.648 22.1465 112.586 22.0917 112.586 21.9822L112.562 6.00598C112.562 5.88086 112.625 5.8183 112.75 5.8183H114.863L118.83 15.0615L118.713 6.00598C118.713 5.88086 118.783 5.8183 118.924 5.8183H121.248C121.342 5.8183 121.389 5.88086 121.389 6.00598L121.412 22.0057C121.412 22.0995 121.373 22.1465 121.295 22.1465H119.229L115.168 13.5132L115.332 21.9588C115.332 22.0839 115.262 22.1465 115.121 22.1465H112.774ZM126.175 22.0292C126.175 22.1074 126.206 22.1465 126.268 22.1465H128.921C128.984 22.1465 129.015 22.1074 129.015 22.0292L128.992 8.65696H132.067C132.129 8.65696 132.161 8.61786 132.161 8.53966V5.91214C132.161 5.84958 132.121 5.8183 132.043 5.8183H123.123C123.06 5.8183 123.029 5.84958 123.029 5.91214L123.006 8.53966C123.006 8.61786 123.045 8.65696 123.123 8.65696H126.175V22.0292Z" fill="#2B2B2B"/>
</svg>
